<svg xmlns="http://www.w3.org/2000/svg" viewBox="168.24 218.52 297.52 436.45" fill="none">
<path fill="#091306" opacity="1.000000" stroke="none" 
	d="
M354.891205,598.759705 
	C355.975372,599.505371 357.017029,600.818787 358.150726,600.903687 
	C365.092499,601.423767 372.075073,601.439392 379.006409,602.050415 
	C390.861450,603.095337 402.754059,604.026855 414.507111,605.817932 
	C423.932312,607.254333 433.175323,609.888733 442.494598,612.011475 
	C443.135529,612.157532 443.886078,612.313843 444.333099,612.734070 
	C446.222717,614.510437 449.321808,616.294189 449.463501,618.256836 
	C449.594391,620.069763 446.864624,623.216370 444.793945,623.868774 
	C435.053864,626.937744 425.207214,629.852539 415.204407,631.849670 
	C405.991028,633.689148 396.530579,634.291870 387.178680,635.436951 
	C382.913269,635.959290 378.655792,636.835388 374.380035,636.937866 
	C342.146851,637.710388 309.910492,638.753967 277.674133,638.788147 
	C264.842102,638.801758 251.993973,636.598938 239.178314,635.178284 
	C228.007950,633.940002 216.818634,632.703857 205.745316,630.830566 
	C200.252487,629.901184 194.789154,627.995911 189.733719,625.631470 
	C187.319122,624.502136 184.407120,621.260925 184.425262,618.997925 
	C184.443436,616.730896 187.442444,613.172058 189.811462,612.473328 
	C198.828812,609.813782 208.044159,607.610046 217.327667,606.124390 
	C228.409637,604.350830 239.627441,603.387085 250.807373,602.285156 
	C254.933853,601.878479 259.167908,602.426392 263.260559,601.865295 
	C265.649628,601.537781 267.856049,599.878296 270.692993,598.491333 
	C274.893860,599.664246 278.546387,601.163818 282.013184,603.030396 
	C281.009918,603.908325 280.229828,604.786621 279.369080,604.874451 
	C268.502441,605.982849 257.567108,606.577698 246.765930,608.120178 
	C237.159119,609.492004 227.638275,611.645081 218.219009,614.009277 
	C216.182190,614.520569 213.938461,617.176758 213.331680,619.288025 
	C212.975174,620.528503 215.333038,623.626526 217.031845,624.187317 
	C223.246613,626.239258 229.613708,628.252808 236.075348,629.050842 
	C252.319366,631.057129 268.632690,633.544128 284.942902,633.735352 
	C311.350372,634.045105 337.777679,632.675659 364.196381,632.005371 
	C379.179199,631.625244 393.931274,629.571899 408.200775,624.964905 
	C411.011292,624.057556 414.771912,621.625000 415.336853,619.242065 
	C416.262848,615.336121 411.780579,614.327515 408.763184,613.088623 
	C401.041260,609.918213 393.145599,608.139771 384.650635,607.738647 
	C367.844116,606.945007 351.105377,604.345276 334.237549,606.883789 
	C333.234161,607.034729 332.106476,606.359802 331.398865,605.924133 
	C334.845062,604.893127 337.929016,604.007324 341.409058,603.153931 
	C346.167175,601.710876 350.529175,600.235291 354.891205,598.759705 
z"/><path fill="#2DA94D" opacity="1.000000" stroke="none" 
	d="
M355.099274,598.489502 
	C350.529175,600.235291 346.167175,601.710876 341.309082,602.793823 
	C339.840393,602.039124 338.766388,601.203613 337.910522,601.386841 
	C327.307831,603.657288 316.722015,604.612671 305.847015,603.195190 
	C292.695221,601.481018 280.154907,598.297058 269.192200,590.928894 
	C273.755585,587.129944 277.996490,583.477417 282.617432,579.851196 
	C284.982971,580.324585 286.968475,580.771545 289.171600,581.507935 
	C303.023010,587.040344 316.906830,586.765198 330.858459,583.467834 
	C344.119080,580.333679 355.510162,573.807129 365.288116,564.134094 
	C372.133423,567.669006 378.673615,571.050537 385.213806,574.432129 
	C377.154877,584.762390 367.015381,592.476868 355.099274,598.489502 
z"/><path fill="#58BB50" opacity="1.000000" stroke="none" 
	d="
M379.050049,527.181580 
	C379.839783,511.275360 376.572052,496.492188 367.048340,483.402283 
	C351.587646,462.152344 318.821625,448.961884 288.531372,461.414001 
	C288.084564,460.684509 288.032928,460.375549 288.293671,459.895142 
	C293.416840,457.527527 298.227631,455.331360 303.488220,453.102631 
	C308.231110,452.728912 312.544952,451.931091 316.813690,452.125427 
	C335.701141,452.985199 352.886292,458.792114 365.985107,472.809479 
	C372.800659,480.102966 377.822235,489.072906 383.744659,497.560730 
	C384.209381,498.232941 384.583588,498.629974 384.978546,499.016388 
	C384.999298,499.005768 384.965240,499.039154 384.915771,499.405029 
	C384.920227,500.505768 384.974213,501.240601 385.057953,502.353394 
	C386.044861,505.836517 387.002014,508.941650 387.963867,512.505005 
	C387.980255,515.600647 387.914276,518.241333 388.020050,520.875061 
	C388.223419,525.939636 390.113678,529.916321 395.566895,530.973633 
	C399.630249,531.761475 402.302673,533.749573 402.987915,537.981628 
	C401.278137,543.282349 399.568329,548.583069 397.176208,553.839966 
	C389.657379,552.184082 382.820892,550.571960 375.988953,548.588745 
	C375.684021,546.153198 375.374542,544.088684 375.065033,542.024231 
	C376.015259,538.914795 376.965515,535.805359 378.379913,532.273987 
	C378.912720,530.295227 378.981384,528.738403 379.050049,527.181580 
z"/><path fill="#B2F050" opacity="1.000000" stroke="none" 
	d="
M305.997070,267.945801 
	C305.765625,270.100067 305.534180,272.254333 304.890808,274.525208 
	C302.605682,272.033813 301.366302,273.897369 300.398590,275.387024 
	C296.268890,281.744110 292.237488,288.165344 288.199463,294.581573 
	C285.997681,298.080109 284.124634,301.827454 281.589325,305.059387 
	C279.913849,307.195282 277.450500,308.808563 275.120056,310.315918 
	C269.787384,313.765076 265.730011,317.890991 266.062500,324.823120 
	C266.261383,317.058075 265.089874,308.955170 266.906189,301.588928 
	C273.358185,275.421906 289.969940,256.501984 312.927246,242.035614 
	C314.455170,243.204681 316.071075,244.584091 315.856018,245.560120 
	C314.810974,250.303421 313.655823,255.098450 311.782532,259.557068 
	C310.494629,262.622437 307.969299,265.167938 305.997070,267.945801 
z"/><path fill="#30AB4D" opacity="1.000000" stroke="none" 
	d="
M341.962830,300.037598 
	C346.542297,312.470978 344.629486,324.798004 341.145874,337.020569 
	C337.618378,349.397125 331.042114,359.985413 321.320984,368.900391 
	C321.010895,369.010529 321.037445,369.039276 321.037445,369.039276 
	C322.500214,363.491791 323.997314,357.953094 325.417908,352.394836 
	C327.750458,343.268463 327.997467,334.088928 326.217285,324.263275 
	C326.208649,323.029633 325.956146,322.401825 325.703644,321.774017 
	C325.703644,321.774017 325.717621,321.609802 325.914917,321.235626 
	C327.165436,319.859711 328.399139,318.989532 329.241638,317.834106 
	C333.537659,311.942505 337.732544,305.977142 341.962830,300.037598 
z"/><path fill="#58BB50" opacity="1.000000" stroke="none" 
	d="
M271.882751,439.997711 
	C271.881805,438.863708 271.880890,437.729706 271.922211,436.052338 
	C271.964478,435.508972 271.968689,435.553253 271.968689,435.553253 
	C271.882904,428.091614 271.797119,420.630005 271.983337,412.496887 
	C272.493713,410.889008 272.732086,409.952545 273.015564,408.653290 
	C274.654480,404.759827 276.248352,401.229218 277.963867,397.429138 
	C278.701721,397.566162 279.794464,397.769104 280.887207,397.972046 
	C280.887207,397.972046 281.126160,398.280182 281.095276,398.863708 
	C281.753540,400.889587 282.442657,402.331909 283.131744,403.774231 
	C287.395020,413.438812 286.784210,423.731781 287.001404,434.784546 
	C286.963654,436.481049 286.942200,437.308838 286.781342,438.461914 
	C285.601105,445.586456 289.674408,449.892639 293.891754,454.339081 
	C291.552704,455.451172 289.398651,456.262573 286.923584,456.934998 
	C280.914764,452.364166 275.127869,448.018921 273.255798,440.450348 
	C273.200806,440.228088 272.364258,440.199158 271.889496,440.056091 
	C271.886902,440.032074 271.882751,439.997711 271.882751,439.997711 
z"/><path fill="#A3EB51" opacity="1.000000" stroke="none" 
	d="
M227.854935,385.400940 
	C216.639893,373.494537 213.061844,355.290131 218.618561,336.010956 
	C223.759094,344.582733 231.883575,347.436279 240.503113,350.042969 
	C239.395813,352.165680 237.156464,353.871246 237.249680,355.438019 
	C237.415741,358.229309 238.992325,360.936676 239.979034,363.679138 
	C237.203583,362.390778 234.428146,361.102417 231.652710,359.814056 
	C231.181717,360.343933 230.710709,360.873810 230.239716,361.403687 
	C232.386459,363.067352 234.533218,364.730988 236.702637,367.013489 
	C234.864349,371.367798 233.005112,375.104065 231.141830,378.838318 
	C230.049500,381.027527 228.950760,383.213501 227.854935,385.400940 
z"/><path fill="#B2F050" opacity="1.000000" stroke="none" 
	d="
M229.862274,482.507538 
	C229.862274,482.507538 229.806839,482.203857 230.159897,481.922791 
	C230.629456,481.270447 230.745941,480.899139 230.862427,480.527802 
	C235.820251,473.863129 240.778091,467.198456 246.226639,460.670532 
	C246.758331,463.602844 247.001282,466.412659 246.805649,469.191559 
	C245.918427,481.793304 244.907501,494.386353 243.594818,507.029510 
	C239.896271,508.659698 236.663147,510.641144 233.151550,511.691742 
	C230.642181,512.442444 227.759171,511.944214 224.920670,511.783875 
	C224.536423,511.360870 224.274399,511.157318 224.075058,510.610535 
	C225.070740,507.834412 226.003723,505.401520 226.950012,502.645294 
	C226.952118,501.890900 226.940903,501.459808 227.000214,500.627899 
	C227.662521,494.978516 228.254303,489.729950 228.846100,484.481384 
	C228.846115,484.481384 228.790604,484.189392 229.147598,483.914642 
	C229.623825,483.262451 229.743042,482.884979 229.862274,482.507538 
z"/><path fill="#72D479" opacity="1.000000" stroke="none" 
	d="
M268.869720,591.075317 
	C280.154907,598.297058 292.695221,601.481018 305.847015,603.195190 
	C316.722015,604.612671 327.307831,603.657288 337.910522,601.386841 
	C338.766388,601.203613 339.840393,602.039124 340.913025,602.761353 
	C337.929016,604.007324 334.845062,604.893127 330.967102,605.856201 
	C322.126587,606.340942 314.080017,606.748474 305.654419,607.074829 
	C304.503723,607.023132 303.732086,607.052551 302.559875,607.021118 
	C297.101440,605.989197 292.043549,605.018066 286.740387,603.960388 
	C286.323700,603.900146 286.152313,603.926514 285.646301,603.877747 
	C284.274109,603.422852 283.236511,603.043091 282.198914,602.663330 
	C278.546387,601.163818 274.893860,599.664246 270.873291,598.090210 
	C253.553680,589.143738 239.510025,577.198547 230.576996,559.943542 
	C228.683121,556.285278 227.175140,552.427185 225.794327,548.384888 
	C227.752457,548.392883 229.405609,548.677124 231.317581,549.182861 
	C235.051712,555.267029 238.527039,561.129700 242.150482,567.292664 
	C249.555069,577.231445 258.190704,585.309448 268.869720,591.075317 
z"/><path fill="#8ADD4E" opacity="1.000000" stroke="none" 
	d="
M304.531738,294.937927 
	C305.304047,297.615051 306.076355,300.292206 306.541443,303.357849 
	C305.621857,303.233124 305.009491,302.719910 304.477081,302.273682 
	C303.697357,304.077942 302.879608,306.175629 301.900696,308.195221 
	C299.343109,313.471802 296.715027,318.714233 294.090698,324.317474 
	C294.047516,325.128357 294.028595,325.592041 293.641357,326.041931 
	C292.497101,326.249298 291.424316,326.218414 290.990082,326.729736 
	C285.303986,333.425476 279.708130,340.197906 274.089600,346.951050 
	C272.121429,342.856476 270.153229,338.761902 268.420959,334.064514 
	C271.408112,330.991089 274.336212,328.688171 276.871643,326.013000 
	C281.410858,321.223633 285.367279,316.157196 288.421387,310.057434 
	C291.979553,302.950928 297.406799,296.776123 302.103790,290.255219 
	C302.362244,289.896362 303.361328,290.070953 304.015656,289.997253 
	C304.108398,290.426056 304.201172,290.854828 303.964294,291.773071 
	C303.933655,293.154327 304.232697,294.046112 304.531738,294.937927 
z"/><path fill="#A3EB51" opacity="1.000000" stroke="none" 
	d="
M304.076782,289.546753 
	C303.361328,290.070953 302.362244,289.896362 302.103790,290.255219 
	C297.406799,296.776123 291.979553,302.950928 288.421387,310.057434 
	C285.367279,316.157196 281.410858,321.223633 276.871643,326.013000 
	C274.336212,328.688171 271.408112,330.991089 268.430115,333.697540 
	C267.473389,331.169189 266.743439,328.405060 266.037994,325.231995 
	C265.730011,317.890991 269.787384,313.765076 275.120056,310.315918 
	C277.450500,308.808563 279.913849,307.195282 281.589325,305.059387 
	C284.124634,301.827454 285.997681,298.080109 288.199463,294.581573 
	C292.237488,288.165344 296.268890,281.744110 300.398590,275.387024 
	C301.366302,273.897369 302.605682,272.033813 304.740601,274.823883 
	C304.714233,279.702728 304.426086,284.399506 304.076782,289.546753 
z"/><path fill="#58BB50" opacity="1.000000" stroke="none" 
	d="
M296.050446,383.060822 
	C299.421387,374.851562 296.728668,369.127838 289.110107,364.992432 
	C286.878510,363.781097 285.290192,361.384644 283.500793,359.008057 
	C284.290161,356.524750 284.628967,354.325592 285.751038,352.651398 
	C288.651245,348.324158 291.840210,344.184509 295.035309,340.064087 
	C296.177460,338.591095 297.668182,337.388367 299.153778,336.384644 
	C306.880402,351.645203 304.649750,366.478333 298.706116,381.216309 
	C298.368988,382.052185 296.960388,382.455963 296.050446,383.060822 
z"/><path fill="#43B14D" opacity="1.000000" stroke="none" 
	d="
M375.984375,548.959900 
	C382.820892,550.571960 389.657379,552.184082 396.850342,553.952881 
	C393.393158,560.744385 389.579468,567.379150 385.489777,574.223022 
	C378.673615,571.050537 372.133423,567.669006 365.441742,563.836792 
	C368.854980,558.577332 372.419678,553.768616 375.984375,548.959900 
z"/><path fill="#58BB50" opacity="1.000000" stroke="none" 
	d="
M312.782898,318.785126 
	C317.355316,327.688171 317.601501,337.308258 316.695312,346.871796 
	C315.704620,357.327026 312.892578,367.403442 307.240906,376.471191 
	C307.244873,372.610321 307.623260,368.910828 307.964325,365.207916 
	C309.004761,353.912994 307.265533,343.137146 302.232361,332.877319 
	C304.681854,328.507233 307.020782,324.390900 308.861969,320.062836 
	C309.872467,317.687347 311.048401,317.892303 312.782898,318.785126 
z"/><path fill="#A3EB51" opacity="1.000000" stroke="none" 
	d="
M306.435486,267.780548 
	C307.969299,265.167938 310.494629,262.622437 311.782532,259.557068 
	C313.655823,255.098450 314.810974,250.303421 315.856018,245.560120 
	C316.071075,244.584091 314.455170,243.204681 313.264282,241.974213 
	C317.121002,239.519012 321.396667,237.100815 325.672302,234.682617 
	C321.041840,246.895782 320.152740,258.556030 325.513794,270.617706 
	C323.619965,271.725769 321.856781,272.208984 320.533752,273.251068 
	C318.622559,274.756378 317.019806,276.656342 315.305176,278.407257 
	C313.456451,280.295135 311.630463,282.205322 309.794556,284.105774 
	C309.212494,279.891266 308.679291,275.669128 308.019409,271.466827 
	C307.813507,270.155365 307.265350,268.897614 306.435486,267.780548 
z"/><path fill="#B2F050" opacity="1.000000" stroke="none" 
	d="
M286.044800,519.003845 
	C286.591431,502.295074 303.403687,489.869049 320.463531,494.205231 
	C312.656281,507.761993 300.810364,515.461975 286.044800,519.003845 
z"/><path fill="#8ADD4E" opacity="1.000000" stroke="none" 
	d="
M227.952789,385.707458 
	C228.950760,383.213501 230.049500,381.027527 231.141830,378.838318 
	C233.005112,375.104065 234.864349,371.367798 236.872589,367.298187 
	C242.190338,369.791260 247.360840,372.618500 252.567093,375.962402 
	C251.762695,377.832458 250.617966,379.088257 250.146408,380.559753 
	C249.192886,383.535217 248.850449,386.716553 247.791901,389.645264 
	C246.860641,392.221741 245.296646,394.569550 243.711182,397.038513 
	C242.936844,397.383667 242.463379,397.708679 241.989914,398.033661 
	C237.343491,394.027100 232.697067,390.020538 227.952789,385.707458 
z"/><path fill="#A3EB51" opacity="1.000000" stroke="none" 
	d="
M285.903992,519.313110 
	C300.810364,515.461975 312.656281,507.761993 320.849609,494.350464 
	C323.596497,495.712402 326.204773,497.386597 328.652649,499.471008 
	C325.559174,503.178558 323.065643,507.062927 319.604218,509.654663 
	C311.675201,515.591553 303.226349,520.829651 295.094849,526.503845 
	C292.867767,528.057922 291.016968,530.151306 288.993530,531.997253 
	C287.916748,527.872314 286.839966,523.747314 285.903992,519.313110 
z"/><path fill="#5FC052" opacity="1.000000" stroke="none" 
	d="
M375.988953,548.588745 
	C372.419678,553.768616 368.854980,558.577332 365.136627,563.683411 
	C355.510162,573.807129 344.119080,580.333679 330.858459,583.467834 
	C316.906830,586.765198 303.023010,587.040344 289.354431,581.221802 
	C290.225983,580.068726 291.132233,579.491211 292.038483,578.913696 
	C303.955811,581.817322 315.963226,583.267883 328.103760,580.509949 
	C349.864105,575.566895 365.350616,562.841248 374.860870,542.298767 
	C375.374542,544.088684 375.684021,546.153198 375.988953,548.588745 
z"/><path fill="#8ADD4E" opacity="1.000000" stroke="none" 
	d="
M289.022461,532.292480 
	C291.016968,530.151306 292.867767,528.057922 295.094849,526.503845 
	C303.226349,520.829651 311.675201,515.591553 319.604218,509.654663 
	C323.065643,507.062927 325.559174,503.178558 328.840820,499.741638 
	C329.189392,499.602081 329.172760,499.657593 329.253571,499.970551 
	C329.899658,500.519684 330.464905,500.755859 331.030151,500.992065 
	C332.772583,502.476257 334.515015,503.960419 336.007751,505.741760 
	C334.178406,507.018372 332.460297,507.833923 331.055359,509.020386 
	C329.432251,510.391113 328.259460,512.313782 326.589417,513.607300 
	C316.441498,521.467285 306.207550,529.216248 295.662903,536.963806 
	C293.592468,535.937622 291.861511,534.950012 290.130524,533.962341 
	C289.770813,533.504089 289.411133,533.045898 289.022461,532.292480 
z"/><path fill="#72D479" opacity="1.000000" stroke="none" 
	d="
M301.914093,333.042694 
	C307.265533,343.137146 309.004761,353.912994 307.964325,365.207916 
	C307.623260,368.910828 307.244873,372.610321 306.967102,376.675903 
	C307.050629,377.040436 307.023560,377.013916 306.767334,377.179779 
	C306.355621,377.922516 306.200165,378.499420 306.044678,379.076294 
	C300.356842,386.971710 294.669006,394.867096 288.981171,402.762512 
	C288.246796,402.455048 287.512421,402.147583 286.778015,401.840118 
	C287.089905,400.371277 287.088135,398.734161 287.769745,397.463684 
	C290.278534,392.787323 293.013885,388.232452 295.857239,383.346375 
	C296.960388,382.455963 298.368988,382.052185 298.706116,381.216309 
	C304.649750,366.478333 306.880402,351.645203 299.126404,336.018738 
	C297.299927,332.238861 295.654816,329.147278 294.009705,326.055725 
	C294.028595,325.592041 294.047516,325.128357 294.369232,324.489014 
	C297.086060,327.223114 299.500092,330.132904 301.914093,333.042694 
z"/><path fill="#76D14E" opacity="1.000000" stroke="none" 
	d="
M293.641357,326.041931 
	C295.654816,329.147278 297.299927,332.238861 298.972412,335.696350 
	C297.668182,337.388367 296.177460,338.591095 295.035309,340.064087 
	C291.840210,344.184509 288.651245,348.324158 285.751038,352.651398 
	C284.628967,354.325592 284.290161,356.524750 283.380280,358.701752 
	C280.186737,355.153564 277.207397,351.388428 274.158844,347.287170 
	C279.708130,340.197906 285.303986,333.425476 290.990082,326.729736 
	C291.424316,326.218414 292.497101,326.249298 293.641357,326.041931 
z"/><path fill="#5FC052" opacity="1.000000" stroke="none" 
	d="
M341.132751,516.013794 
	C341.339417,517.724854 341.546082,519.435852 341.328796,521.666870 
	C331.124481,529.092773 321.344086,535.998779 311.143768,543.201294 
	C313.237701,544.790527 314.110443,545.452881 314.983154,546.115356 
	C313.243408,546.115967 311.503662,546.116577 309.288208,545.667847 
	C306.852051,543.815613 304.891632,542.412720 303.239624,540.869995 
	C312.024475,533.700378 320.433777,526.587219 329.010132,519.681519 
	C332.485077,516.883423 336.324310,514.537720 339.997803,511.986206 
	C340.350952,512.766174 340.704071,513.546082 340.888367,514.727539 
	C340.857269,515.424011 340.995026,515.718933 341.132751,516.013794 
z"/><path fill="#76D14E" opacity="1.000000" stroke="none" 
	d="
M403.068481,537.582031 
	C402.302673,533.749573 399.630249,531.761475 395.566895,530.973633 
	C390.113678,529.916321 388.223419,525.939636 388.020050,520.875061 
	C387.914276,518.241333 387.980255,515.600647 388.320557,512.338745 
	C393.811249,510.100372 398.949982,508.486359 404.088715,506.872314 
	C405.629578,516.211731 406.167786,525.513672 403.210266,534.719666 
	C402.969269,535.469788 403.159302,536.358276 403.068481,537.582031 
z"/><path fill="#6BC552" opacity="1.000000" stroke="none" 
	d="
M280.842102,397.638123 
	C279.794464,397.769104 278.701721,397.566162 277.963867,397.429138 
	C276.248352,401.229218 274.654480,404.759827 272.691681,408.500793 
	C267.884247,407.138214 263.445801,405.565338 259.005432,403.561493 
	C260.683075,395.724304 262.362610,388.318115 264.042175,380.911926 
	C271.530487,384.430542 276.946838,390.067017 280.842102,397.638123 
z"/><path fill="#58BB50" opacity="1.000000" stroke="none" 
	d="
M341.957153,299.661041 
	C337.732544,305.977142 333.537659,311.942505 329.241638,317.834106 
	C328.399139,318.989532 327.165436,319.859711 325.996704,321.225525 
	C323.908417,317.342957 321.935669,313.096375 320.152557,308.296234 
	C324.864044,302.094635 329.312622,296.384521 333.988220,290.866760 
	C334.673828,290.057648 336.438995,290.163330 337.704651,289.845734 
	C339.120270,292.991974 340.535858,296.138245 341.957153,299.661041 
z"/><path fill="#76D14E" opacity="1.000000" stroke="none" 
	d="
M339.969177,511.650055 
	C336.324310,514.537720 332.485077,516.883423 329.010132,519.681519 
	C320.433777,526.587219 312.024475,533.700378 302.872131,540.875977 
	C300.131592,539.681946 298.066986,538.342102 296.002319,537.002319 
	C306.207550,529.216248 316.441498,521.467285 326.589417,513.607300 
	C328.259460,512.313782 329.432251,510.391113 331.055359,509.020386 
	C332.460297,507.833923 334.178406,507.018372 336.175598,506.055359 
	C337.708923,507.819183 338.824738,509.566528 339.969177,511.650055 
z"/><path fill="#76D14E" opacity="1.000000" stroke="none" 
	d="
M263.816254,380.657410 
	C262.362610,388.318115 260.683075,395.724304 258.635498,403.519775 
	C253.515671,401.612152 248.763870,399.315247 244.012085,397.018341 
	C245.296646,394.569550 246.860641,392.221741 247.791901,389.645264 
	C248.850449,386.716553 249.192886,383.535217 250.146408,380.559753 
	C250.617966,379.088257 251.762695,377.832458 252.827911,376.189911 
	C253.232559,375.908417 253.412170,375.916046 253.852570,376.345825 
	C254.728256,376.871735 255.343185,376.975525 255.958115,377.079346 
	C258.502197,378.187164 261.046265,379.295013 263.816254,380.657410 
z"/><path fill="#93DC5A" opacity="1.000000" stroke="none" 
	d="
M243.941101,506.982513 
	C244.907501,494.386353 245.918427,481.793304 246.805649,469.191559 
	C247.001282,466.412659 246.758331,463.602844 246.503204,460.478455 
	C246.797943,461.067963 247.755386,461.989716 247.748352,462.904083 
	C247.644791,476.347870 247.004898,489.800873 247.341721,503.230408 
	C247.606522,513.788330 248.775696,524.350037 250.091736,534.841248 
	C250.573761,538.683838 252.634033,542.328430 253.794189,546.730408 
	C252.398895,547.593689 251.183792,547.789917 249.711563,547.762329 
	C247.993317,544.328735 246.532211,541.118958 245.056885,537.498657 
	C244.354614,532.401917 243.666534,527.715881 242.980865,522.579102 
	C243.302536,517.079773 243.621811,512.031128 243.941101,506.982513 
z"/><path fill="#8ADD4E" opacity="1.000000" stroke="none" 
	d="
M309.777283,284.512024 
	C311.630463,282.205322 313.456451,280.295135 315.305176,278.407257 
	C317.019806,276.656342 318.622559,274.756378 320.533752,273.251068 
	C321.856781,272.208984 323.619965,271.725769 325.566101,270.993469 
	C328.397339,274.737000 330.848969,278.479858 333.077515,282.490540 
	C330.682648,281.136719 329.019562,280.769440 327.404266,283.757904 
	C326.344360,285.718811 324.315460,287.167755 322.676208,288.801544 
	C316.799957,294.658203 316.624329,294.958069 315.989502,300.999054 
	C313.912994,295.638794 311.836487,290.278534 309.777283,284.512024 
z"/><path fill="#58BB50" opacity="1.000000" stroke="none" 
	d="
M315.290375,546.236450 
	C314.110443,545.452881 313.237701,544.790527 311.143768,543.201294 
	C321.344086,535.998779 331.124481,529.092773 341.204224,522.086914 
	C340.728851,535.241211 330.456940,544.904358 315.290375,546.236450 
z"/><path fill="#43B14D" opacity="1.000000" stroke="none" 
	d="
M271.892090,440.080109 
	C272.364258,440.199158 273.200806,440.228088 273.255798,440.450348 
	C275.127869,448.018921 280.914764,452.364166 286.860779,457.264648 
	C287.406403,458.511108 287.693848,459.288879 287.981293,460.066620 
	C288.032928,460.375549 288.084564,460.684509 288.219910,461.457825 
	C283.034271,465.774780 277.764862,469.627350 271.793671,473.993011 
	C271.793671,464.668762 271.793671,455.792053 271.682404,446.101562 
	C271.678131,443.551880 271.785095,441.815979 271.892090,440.080109 
M285.355682,460.901672 
	C285.425598,460.786163 285.580750,460.604279 285.551117,460.566254 
	C285.395172,460.366119 285.192688,460.202209 284.604858,460.226349 
	C284.498444,460.594055 284.391998,460.961792 284.285583,461.329529 
	C284.532562,461.269867 284.779541,461.210205 285.355682,460.901672 
z"/><path fill="#6BC552" opacity="1.000000" stroke="none" 
	d="
M302.232361,332.877319 
	C299.500092,330.132904 297.086060,327.223114 294.393555,324.141785 
	C296.715027,318.714233 299.343109,313.471802 301.900696,308.195221 
	C302.879608,306.175629 303.697357,304.077942 304.477081,302.273682 
	C305.009491,302.719910 305.621857,303.233124 306.574219,303.780304 
	C308.848236,308.534882 310.782257,313.255493 312.749603,318.380615 
	C311.048401,317.892303 309.872467,317.687347 308.861969,320.062836 
	C307.020782,324.390900 304.681854,328.507233 302.232361,332.877319 
z"/><path fill="#76D14E" opacity="1.000000" stroke="none" 
	d="
M316.026123,301.345520 
	C316.624329,294.958069 316.799957,294.658203 322.676208,288.801544 
	C324.315460,287.167755 326.344360,285.718811 327.404266,283.757904 
	C329.019562,280.769440 330.682648,281.136719 333.210785,282.832062 
	C334.901245,284.982056 336.235413,287.058319 337.637085,289.490143 
	C336.438995,290.163330 334.673828,290.057648 333.988220,290.866760 
	C329.312622,296.384521 324.864044,302.094635 320.053650,307.946289 
	C318.530945,305.997284 317.296844,303.844666 316.026123,301.345520 
z"/><path fill="#8ADD4E" opacity="1.000000" stroke="none" 
	d="
M404.008545,506.546143 
	C398.949982,508.486359 393.811249,510.100372 388.315826,511.880615 
	C387.002014,508.941650 386.044861,505.836517 385.302673,502.170593 
	C385.333466,500.752960 385.149353,499.896057 384.965240,499.039154 
	C384.965240,499.039154 384.999298,499.005768 385.007507,498.674133 
	C385.019989,497.884521 385.024231,497.426575 385.091980,496.620117 
	C389.762421,495.525909 394.369324,494.780212 399.133118,494.318665 
	C400.189178,495.981323 401.088409,497.359894 401.987610,498.738434 
	C402.634552,501.232269 403.281464,503.726105 404.008545,506.546143 
z"/><path fill="#72D479" opacity="1.000000" stroke="none" 
	d="
M249.968719,547.986206 
	C251.183792,547.789917 252.398895,547.593689 253.835907,547.095947 
	C262.656281,561.901855 274.771240,572.879761 291.710144,578.746094 
	C291.132233,579.491211 290.225983,580.068726 289.136841,580.932373 
	C286.968475,580.771545 284.982971,580.324585 282.392853,579.589478 
	C271.899902,574.181519 262.987152,567.820312 255.875168,558.698486 
	C253.831726,554.909973 251.900223,551.448059 249.968719,547.986206 
z"/><path fill="#58BB50" opacity="1.000000" stroke="none" 
	d="
M269.586334,361.869751 
	C279.261627,368.348419 284.289734,377.384888 284.596375,389.110779 
	C279.418457,382.030609 273.405212,376.068878 265.234039,372.269897 
	C265.874298,370.057404 266.320129,368.294983 267.031677,366.647369 
	C267.745209,364.995239 268.723877,363.457581 269.586334,361.869751 
z"/><path fill="#76D14E" opacity="1.000000" stroke="none" 
	d="
M269.354980,361.576874 
	C268.723877,363.457581 267.745209,364.995239 267.031677,366.647369 
	C266.320129,368.294983 265.874298,370.057404 264.997253,372.020020 
	C260.316010,370.795349 255.949432,369.320160 251.314606,367.194885 
	C252.030670,362.367676 253.014954,358.190521 253.999237,354.013367 
	C253.999252,354.013367 254.012161,353.991089 254.217850,353.981171 
	C254.423538,353.971252 254.812744,354.029083 254.812744,354.029083 
	C259.583038,356.447388 264.353302,358.865692 269.354980,361.576874 
z"/><path fill="#8ADD4E" opacity="1.000000" stroke="none" 
	d="
M253.641113,353.959076 
	C253.014954,358.190521 252.030670,362.367676 251.043594,366.993164 
	C247.553116,366.336456 244.065414,365.231445 240.278381,363.902771 
	C238.992325,360.936676 237.415741,358.229309 237.249680,355.438019 
	C237.156464,353.871246 239.395813,352.165680 240.811035,350.228821 
	C245.119537,351.258209 249.201279,352.581482 253.641113,353.959076 
z"/><path fill="#93DC5A" opacity="1.000000" stroke="none" 
	d="
M231.058762,548.961365 
	C229.405609,548.677124 227.752457,548.392883 225.748016,548.031250 
	C220.644257,536.300415 220.016174,524.129578 221.334106,511.381989 
	C222.544601,510.977692 223.278488,510.965759 224.012360,510.953796 
	C224.274399,511.157318 224.536423,511.360870 224.903107,512.231628 
	C225.342560,516.606995 225.677383,520.315186 226.016602,524.447388 
	C226.981186,529.573608 227.941391,534.275757 228.925568,539.395447 
	C229.652618,542.862427 230.355698,545.911926 231.058762,548.961365 
z"/><path fill="#93DC5A" opacity="1.000000" stroke="none" 
	d="
M286.920776,438.136658 
	C286.942200,437.308838 286.963654,436.481049 287.025879,435.241699 
	C292.769958,434.075958 298.456757,432.888519 304.180511,432.670258 
	C312.540253,432.351349 320.926575,432.728363 329.640442,433.273102 
	C329.948608,434.131866 329.917847,434.526306 329.494141,434.942932 
	C328.036194,434.988770 326.971161,435.012421 325.491180,435.017426 
	C319.034485,435.019257 312.992798,435.039703 306.527954,435.056641 
	C301.403198,436.037506 296.701599,437.021912 291.578430,438.011536 
	C289.744812,438.056732 288.332794,438.096710 286.920776,438.136658 
z"/><path fill="#AEE95D" opacity="1.000000" stroke="none" 
	d="
M372.743164,452.600342 
	C372.582916,452.912384 372.293182,452.935394 371.323364,452.876038 
	C361.492615,446.397675 352.218933,440.248138 340.739746,437.731415 
	C336.949524,436.616272 333.418335,435.768494 329.887085,434.920715 
	C329.917847,434.526306 329.948608,434.131866 329.997314,433.441345 
	C345.942780,435.693115 360.265259,441.808380 372.743164,452.600342 
z"/><path fill="#A3EB51" opacity="1.000000" stroke="none" 
	d="
M224.075043,510.610565 
	C223.278488,510.965759 222.544601,510.977692 221.444092,510.979858 
	C223.473526,502.296783 225.869568,493.623505 228.555862,484.715820 
	C228.254303,489.729950 227.662521,494.978516 226.718079,500.666351 
	C226.064789,501.418732 225.764130,501.731812 225.463470,502.044891 
	C225.954544,502.352783 226.445633,502.660706 226.936707,502.968597 
	C226.003723,505.401520 225.070740,507.834412 224.075043,510.610565 
z"/><path fill="#81D158" opacity="1.000000" stroke="none" 
	d="
M243.711182,397.038513 
	C248.763870,399.315247 253.515671,401.612152 258.637390,403.950775 
	C263.445801,405.565338 267.884247,407.138214 272.646606,408.863586 
	C272.732086,409.952545 272.493713,410.889008 271.952637,412.046753 
	C269.973267,411.332825 268.350677,410.279572 266.610779,409.482452 
	C258.565979,405.796936 250.488617,402.182648 242.206421,398.288239 
	C242.463379,397.708679 242.936844,397.383667 243.711182,397.038513 
z"/><path fill="#93DC5A" opacity="1.000000" stroke="none" 
	d="
M295.662903,536.963806 
	C298.066986,538.342102 300.131592,539.681946 302.563721,541.015747 
	C304.891632,542.412720 306.852051,543.815613 308.868896,545.545410 
	C301.015503,544.932800 294.960571,540.929382 290.221069,534.282959 
	C291.861511,534.950012 293.592468,535.937622 295.662903,536.963806 
z"/><path fill="#6BC552" opacity="1.000000" stroke="none" 
	d="
M283.117065,403.427551 
	C282.442657,402.331909 281.753540,400.889587 281.084869,399.058411 
	C281.770996,400.139984 282.436676,401.610443 283.117065,403.427551 
z"/><path fill="#5FC052" opacity="1.000000" stroke="none" 
	d="
M378.882141,527.485962 
	C378.981384,528.738403 378.912720,530.295227 378.526489,531.918823 
	C378.377380,530.587219 378.545807,529.188782 378.882141,527.485962 
z"/><path fill="#81D158" opacity="1.000000" stroke="none" 
	d="
M271.889496,440.056091 
	C271.785095,441.815979 271.678131,443.551880 271.686249,445.559692 
	C271.819977,444.051086 271.838593,442.270569 271.869995,440.243866 
	C271.882751,439.997711 271.886902,440.032074 271.889496,440.056091 
z"/><path fill="#A3EB51" opacity="1.000000" stroke="none" 
	d="
M304.594055,294.632080 
	C304.232697,294.046112 303.933655,293.154327 303.894226,292.098083 
	C304.321320,292.731171 304.488831,293.528717 304.594055,294.632080 
z"/><path fill="#8ADD4E" opacity="1.000000" stroke="none" 
	d="
M255.751099,376.906677 
	C255.343185,376.975525 254.728256,376.871735 254.071716,376.502930 
	C254.534775,376.403320 255.039429,376.568665 255.751099,376.906677 
z"/><path fill="#58BB50" opacity="1.000000" stroke="none" 
	d="
M306.287598,378.896149 
	C306.200165,378.499420 306.355621,377.922516 306.779633,377.188904 
	C306.875610,377.593475 306.703033,378.154755 306.287598,378.896149 
z"/><path fill="#58BB50" opacity="1.000000" stroke="none" 
	d="
M325.704071,322.152954 
	C325.956146,322.401825 326.208649,323.029633 326.224854,323.832886 
	C325.893860,323.516205 325.799194,323.024017 325.704071,322.152954 
z"/><path fill="#58BB50" opacity="1.000000" stroke="none" 
	d="
M341.226318,515.843140 
	C340.995026,515.718933 340.857269,515.424011 340.867432,515.057861 
	C341.244598,515.158569 341.346069,515.387207 341.226318,515.843140 
z"/><path fill="#A3EB51" opacity="1.000000" stroke="none" 
	d="
M330.871460,500.736206 
	C330.464905,500.755859 329.899658,500.519684 329.226807,499.981689 
	C329.650421,499.946655 330.181610,500.213501 330.871460,500.736206 
z"/><path fill="#A3EB51" opacity="1.000000" stroke="none" 
	d="
M230.617233,480.704834 
	C230.745941,480.899139 230.629456,481.270447 230.280396,481.826355 
	C230.155899,481.634583 230.263962,481.258240 230.617233,480.704834 
z"/><path fill="#8ADD4E" opacity="1.000000" stroke="none" 
	d="
M254.744675,353.927765 
	C254.812744,354.029083 254.423538,353.971252 254.227814,353.989441 
	C254.205795,353.788483 254.420639,353.728088 254.744675,353.927765 
z"/><path fill="#A3EB51" opacity="1.000000" stroke="none" 
	d="
M229.610565,482.684692 
	C229.743042,482.884979 229.623825,483.262451 229.267334,483.826599 
	C229.139679,483.629486 229.249268,483.245667 229.610565,482.684692 
z"/><path fill="#81D158" opacity="1.000000" stroke="none" 
	d="
M271.866394,435.583160 
	C271.968689,435.553253 271.964478,435.508972 271.967468,435.487061 
	C271.970428,435.465149 271.681763,435.441376 271.681763,435.441376 
	C271.681763,435.441376 271.764130,435.613068 271.866394,435.583160 
z"/><path fill="#30AB4D" opacity="1.000000" stroke="none" 
	d="
M320.999146,368.995422 
	C320.880219,368.974945 320.773071,368.969543 320.851685,369.001709 
	C321.037445,369.039276 321.010895,369.010529 320.999146,368.995422 
z"/><path fill="#152E10" opacity="1.000000" stroke="none" 
	d="
M286.985687,604.046997 
	C292.043549,605.018066 297.101440,605.989197 302.285400,607.299500 
	C299.141266,608.091980 295.884430,608.740356 292.598602,608.965454 
	C276.733521,610.052734 260.841400,610.807007 245.003937,612.193604 
	C241.038895,612.540771 236.886688,614.215088 233.458679,616.319214 
	C229.523499,618.734619 230.109238,622.063110 234.448929,623.589355 
	C238.607025,625.051758 242.919464,626.205811 247.253738,627.015259 
	C271.169189,631.481506 295.421661,631.572998 319.604523,631.844116 
	C333.009491,631.994385 346.471222,631.062927 359.832275,629.814697 
	C369.484375,628.913025 379.073486,626.960693 388.553925,624.859741 
	C390.948303,624.329163 392.819275,621.436584 394.930756,619.629456 
	C392.832397,617.736572 390.954987,614.581116 388.597534,614.168640 
	C378.204041,612.349548 367.696625,611.058289 357.183533,610.080261 
	C346.792114,609.113586 336.350861,608.557983 325.918549,608.207581 
	C320.641449,608.030457 315.337311,608.838623 310.041870,608.899780 
	C308.712646,608.915100 307.369965,607.768555 306.033478,607.156006 
	C314.080017,606.748474 322.126587,606.340942 330.604858,606.001343 
	C332.106476,606.359802 333.234161,607.034729 334.237549,606.883789 
	C351.105377,604.345276 367.844116,606.945007 384.650635,607.738647 
	C393.145599,608.139771 401.041260,609.918213 408.763184,613.088623 
	C411.780579,614.327515 416.262848,615.336121 415.336853,619.242065 
	C414.771912,621.625000 411.011292,624.057556 408.200775,624.964905 
	C393.931274,629.571899 379.179199,631.625244 364.196381,632.005371 
	C337.777679,632.675659 311.350372,634.045105 284.942902,633.735352 
	C268.632690,633.544128 252.319366,631.057129 236.075348,629.050842 
	C229.613708,628.252808 223.246613,626.239258 217.031845,624.187317 
	C215.333038,623.626526 212.975174,620.528503 213.331680,619.288025 
	C213.938461,617.176758 216.182190,614.520569 218.219009,614.009277 
	C227.638275,611.645081 237.159119,609.492004 246.765930,608.120178 
	C257.567108,606.577698 268.502441,605.982849 279.369080,604.874451 
	C280.229828,604.786621 281.009918,603.908325 282.013184,603.030396 
	C283.236511,603.043091 284.274109,603.422852 285.730591,604.046387 
	C286.428223,604.209106 286.706940,604.127991 286.985687,604.046997 
z"/><path fill="#30AB4D" opacity="1.000000" stroke="none" 
	d="
M255.987091,559.025208 
	C262.987152,567.820312 271.899902,574.181519 282.012817,579.563049 
	C277.996490,583.477417 273.755585,587.129944 269.192200,590.928894 
	C258.190704,585.309448 249.555069,577.231445 242.311096,566.990234 
	C246.878113,563.933411 251.432602,561.479309 255.987091,559.025208 
z"/><path fill="#AEE95D" opacity="1.000000" stroke="none" 
	d="
M383.654144,497.285553 
	C377.822235,489.072906 372.800659,480.102966 365.985107,472.809479 
	C352.886292,458.792114 335.701141,452.985199 316.813690,452.125427 
	C312.544952,451.931091 308.231110,452.728912 303.283020,452.955444 
	C302.430878,452.574677 302.233765,452.308472 302.025696,452.030945 
	C302.014709,452.019623 302.020630,452.014954 302.416595,451.975861 
	C308.200073,451.270050 313.587616,450.603302 319.425079,449.960571 
	C324.581329,450.320221 329.287598,450.655853 334.319702,451.140564 
	C338.423767,452.518188 342.201965,453.746735 346.182556,455.247253 
	C350.684967,458.262787 355.283600,460.639313 359.214874,463.836426 
	C365.064240,468.593414 370.442047,473.930206 376.063721,479.369202 
	C378.761322,485.455597 381.415710,491.193054 383.968018,497.021484 
	C383.865967,497.112518 383.654144,497.285553 383.654144,497.285553 
z"/><path fill="#81D158" opacity="1.000000" stroke="none" 
	d="
M302.036652,452.042297 
	C302.233765,452.308472 302.430878,452.574677 302.833252,452.988037 
	C298.227631,455.331360 293.416840,457.527527 288.293671,459.895142 
	C287.693848,459.288879 287.406403,458.511108 287.181793,457.403687 
	C289.398651,456.262573 291.552704,455.451172 294.265625,454.322388 
	C297.228577,453.350800 299.632629,452.696533 302.036652,452.042297 
z"/><path fill="#A3EB51" opacity="1.000000" stroke="none" 
	d="
M384.915771,499.405029 
	C385.149353,499.896057 385.333466,500.752960 385.272888,501.792664 
	C384.974213,501.240601 384.920227,500.505768 384.915771,499.405029 
z"/><path fill="#AEE95D" opacity="1.000000" stroke="none" 
	d="
M385.028503,496.968628 
	C385.024231,497.426575 385.019989,497.884521 384.986755,498.684753 
	C384.583588,498.629974 384.209381,498.232941 383.744659,497.560730 
	C383.654144,497.285553 383.865967,497.112518 384.207001,497.037628 
	C384.548035,496.962738 385.028503,496.968628 385.028503,496.968628 
z"/><path fill="#5FC052" opacity="1.000000" stroke="none" 
	d="
M302.025696,452.030945 
	C299.632629,452.696533 297.228577,453.350800 294.450623,454.021729 
	C289.674408,449.892639 285.601105,445.586456 286.781342,438.461914 
	C288.332794,438.096710 289.744812,438.056732 291.614471,438.362976 
	C293.819183,441.078766 295.554749,443.456879 297.316772,445.815216 
	C298.869415,447.893250 300.451538,449.949219 302.020630,452.014954 
	C302.020630,452.014954 302.014709,452.019623 302.025696,452.030945 
z"/><path fill="#A3EB51" opacity="1.000000" stroke="none" 
	d="
M226.012207,524.023315 
	C225.677383,520.315186 225.342560,516.606995 225.025299,512.451050 
	C227.759171,511.944214 230.642181,512.442444 233.151550,511.691742 
	C236.663147,510.641144 239.896271,508.659698 243.594818,507.029510 
	C243.621811,512.031128 243.302536,517.079773 242.534286,522.567200 
	C236.727615,523.345093 231.369904,523.684204 226.012207,524.023315 
z"/><path fill="#93DC5A" opacity="1.000000" stroke="none" 
	d="
M226.950012,502.645294 
	C226.445633,502.660706 225.954544,502.352783 225.463470,502.044891 
	C225.764130,501.731812 226.064789,501.418732 226.647552,501.067169 
	C226.940903,501.459808 226.952118,501.890900 226.950012,502.645294 
z"/><path fill="#22491B" opacity="1.000000" stroke="none" 
	d="
M305.654419,607.074829 
	C307.369965,607.768555 308.712646,608.915100 310.041870,608.899780 
	C315.337311,608.838623 320.641449,608.030457 325.918549,608.207581 
	C336.350861,608.557983 346.792114,609.113586 357.183533,610.080261 
	C367.696625,611.058289 378.204041,612.349548 388.597534,614.168640 
	C390.954987,614.581116 392.832397,617.736572 394.930756,619.629456 
	C392.819275,621.436584 390.948303,624.329163 388.553925,624.859741 
	C379.073486,626.960693 369.484375,628.913025 359.832275,629.814697 
	C346.471222,631.062927 333.009491,631.994385 319.604523,631.844116 
	C295.421661,631.572998 271.169189,631.481506 247.253738,627.015259 
	C242.919464,626.205811 238.607025,625.051758 234.448929,623.589355 
	C230.109238,622.063110 229.523499,618.734619 233.458679,616.319214 
	C236.886688,614.215088 241.038895,612.540771 245.003937,612.193604 
	C260.841400,610.807007 276.733521,610.052734 292.598602,608.965454 
	C295.884430,608.740356 299.141266,608.091980 302.685913,607.360291 
	C303.732086,607.052551 304.503723,607.023132 305.654419,607.074829 
M311.367523,611.014648 
	C302.292419,611.068726 293.163666,610.525696 284.156433,611.335144 
	C273.992401,612.248474 263.904877,614.206482 253.862869,616.123047 
	C251.835526,616.509949 250.160751,618.743958 248.323456,620.126404 
	C249.960907,621.607544 251.535126,623.169739 253.271011,624.524780 
	C253.858841,624.983643 254.847260,624.991516 255.666290,625.082764 
	C267.485687,626.399841 279.290802,628.576599 291.132324,628.800293 
	C311.221039,629.179688 331.342316,628.582092 351.430817,627.862488 
	C359.652069,627.567993 367.869629,626.140991 375.987213,624.668701 
	C378.157135,624.275085 379.952515,621.816528 381.919830,620.306030 
	C379.988708,618.824402 378.223999,616.398438 376.097778,616.023804 
	C366.676666,614.363708 357.186096,612.813354 347.655640,612.130310 
	C335.912109,611.288696 324.104065,611.346924 311.367523,611.014648 
z"/><path fill="#58BB50" opacity="1.000000" stroke="none" 
	d="
M255.875153,558.698486 
	C251.432602,561.479309 246.878113,563.933411 242.162994,566.689941 
	C238.527039,561.129700 235.051712,555.267029 231.317581,549.182861 
	C230.355698,545.911926 229.652618,542.862427 229.344147,539.402649 
	C234.849548,538.631287 239.960327,538.270264 245.071106,537.909241 
	C246.532211,541.118958 247.993317,544.328735 249.711578,547.762329 
	C251.900223,551.448059 253.831726,554.909973 255.875153,558.698486 
z"/><path fill="#091306" opacity="1.000000" stroke="none" 
	d="
M286.740387,603.960327 
	C286.706940,604.127991 286.428223,604.209106 286.065186,604.121521 
	C286.152313,603.926514 286.323700,603.900146 286.740387,603.960327 
z"/><path fill="#76D14E" opacity="1.000000" stroke="none" 
	d="
M245.056885,537.498657 
	C239.960327,538.270264 234.849548,538.631287 229.320190,538.985107 
	C227.941391,534.275757 226.981186,529.573608 226.016602,524.447388 
	C231.369904,523.684204 236.727615,523.345093 242.531891,523.017883 
	C243.666534,527.715881 244.354614,532.401917 245.056885,537.498657 
z"/><path fill="#58BB50" opacity="1.000000" stroke="none" 
	d="
M285.026520,461.150574 
	C284.779541,461.210205 284.532562,461.269867 284.285583,461.329529 
	C284.391998,460.961792 284.498444,460.594055 284.807587,460.407166 
	C285.015747,460.775482 285.021149,460.963043 285.026520,461.150574 
z"/><path fill="#81D158" opacity="1.000000" stroke="none" 
	d="
M285.191101,461.026123 
	C285.021149,460.963043 285.015747,460.775482 285.008331,460.306824 
	C285.192688,460.202209 285.395172,460.366119 285.551117,460.566254 
	C285.580750,460.604279 285.425598,460.786163 285.191101,461.026123 
z"/><path fill="#A3EB51" opacity="1.000000" stroke="none" 
	d="
M385.091980,496.620117 
	C385.028503,496.968628 384.548035,496.962738 384.309052,496.946594 
	C381.415710,491.193054 378.761322,485.455597 376.361023,479.213074 
	C380.125885,474.914185 383.839813,471.660156 389.592743,473.823486 
	C392.781281,480.304993 395.969849,486.786469 399.067322,493.651245 
	C394.369324,494.780212 389.762421,495.525909 385.091980,496.620117 
z"/><path fill="#76D14E" opacity="1.000000" stroke="none" 
	d="
M302.416595,451.975861 
	C300.451538,449.949219 298.869415,447.893250 297.316772,445.815216 
	C295.554749,443.456879 293.819183,441.078766 292.036072,438.357758 
	C296.701599,437.021912 301.403198,436.037506 306.582031,435.393555 
	C309.415558,438.180786 311.895752,440.522400 314.089447,443.107147 
	C315.894409,445.233917 317.359467,447.649170 318.975128,449.936554 
	C313.587616,450.603302 308.200073,451.270050 302.416595,451.975861 
z"/><path fill="#8ADD4E" opacity="1.000000" stroke="none" 
	d="
M319.425079,449.960571 
	C317.359467,447.649170 315.894409,445.233917 314.089447,443.107147 
	C311.895752,440.522400 309.415558,438.180786 307.005188,435.397064 
	C312.992798,435.039703 319.034485,435.019257 325.522339,435.399323 
	C326.656342,437.562225 327.163422,439.424408 328.069885,441.066071 
	C329.931305,444.437073 332.006622,447.690002 333.993896,450.991516 
	C329.287598,450.655853 324.581329,450.320221 319.425079,449.960571 
z"/><path fill="#A3EB51" opacity="1.000000" stroke="none" 
	d="
M334.319702,451.140564 
	C332.006622,447.690002 329.931305,444.437073 328.069885,441.066071 
	C327.163422,439.424408 326.656342,437.562225 325.937317,435.417938 
	C326.971161,435.012421 328.036194,434.988770 329.494141,434.942932 
	C333.418335,435.768494 336.949524,436.616272 340.737610,438.155640 
	C342.656403,444.223267 344.318298,449.599274 345.980194,454.975311 
	C342.201965,453.746735 338.423767,452.518188 334.319702,451.140564 
z"/><path fill="#B2F050" opacity="1.000000" stroke="none" 
	d="
M346.182556,455.247253 
	C344.318298,449.599274 342.656403,444.223267 340.996643,438.423004 
	C352.218933,440.248138 361.492615,446.397675 370.891174,452.818237 
	C377.208191,459.608185 383.277222,466.373596 389.469513,473.481262 
	C383.839813,471.660156 380.125885,474.914185 376.317810,478.864136 
	C370.442047,473.930206 365.064240,468.593414 359.214874,463.836426 
	C355.283600,460.639313 350.684967,458.262787 346.182556,455.247253 
z"/><path fill="#336A29" opacity="1.000000" stroke="none" 
	d="
M311.845703,611.015442 
	C324.104065,611.346924 335.912109,611.288696 347.655640,612.130310 
	C357.186096,612.813354 366.676666,614.363708 376.097778,616.023804 
	C378.223999,616.398438 379.988708,618.824402 381.919830,620.306030 
	C379.952515,621.816528 378.157135,624.275085 375.987213,624.668701 
	C367.869629,626.140991 359.652069,627.567993 351.430817,627.862488 
	C331.342316,628.582092 311.221039,629.179688 291.132324,628.800293 
	C279.290802,628.576599 267.485687,626.399841 255.666290,625.082764 
	C254.847260,624.991516 253.858841,624.983643 253.271011,624.524780 
	C251.535126,623.169739 249.960907,621.607544 248.323441,620.126404 
	C250.160751,618.743958 251.835526,616.509949 253.862869,616.123047 
	C263.904877,614.206482 273.992401,612.248474 284.156433,611.335144 
	C293.163666,610.525696 302.292419,611.068726 311.845703,611.015442 
M303.501526,613.997253 
	C293.102203,614.703796 282.680359,615.197083 272.321686,616.289429 
	C270.143951,616.519043 268.198273,618.949524 266.145721,620.365845 
	C267.874573,621.655151 269.459381,623.751282 271.357941,624.090332 
	C278.496674,625.365112 285.746643,626.902161 292.938690,626.825195 
	C313.495789,626.605286 334.049774,625.753662 354.592529,624.863464 
	C358.044464,624.713867 361.434479,623.134399 364.853119,622.215576 
	C364.988281,621.632629 365.123474,621.049683 365.258636,620.466736 
	C363.060242,619.012146 361.005981,616.647461 358.636658,616.272217 
	C351.304260,615.111206 343.863922,614.340637 336.443237,614.097473 
	C325.806091,613.748962 315.149261,614.000061 303.501526,613.997253 
z"/><path fill="#459137" opacity="1.000000" stroke="none" 
	d="
M304.001190,613.996216 
	C315.149261,614.000061 325.806091,613.748962 336.443237,614.097473 
	C343.863922,614.340637 351.304260,615.111206 358.636658,616.272217 
	C361.005981,616.647461 363.060242,619.012146 365.258636,620.466736 
	C365.123474,621.049683 364.988281,621.632629 364.853119,622.215576 
	C361.434479,623.134399 358.044464,624.713867 354.592529,624.863464 
	C334.049774,625.753662 313.495789,626.605286 292.938690,626.825195 
	C285.746643,626.902161 278.496674,625.365112 271.357941,624.090332 
	C269.459381,623.751282 267.874573,621.655151 266.145691,620.365845 
	C268.198273,618.949524 270.143951,616.519043 272.321686,616.289429 
	C282.680359,615.197083 293.102203,614.703796 304.001190,613.996216 
M306.981445,624.929260 
	C312.300262,624.908081 317.619110,624.886902 323.871002,624.950684 
	C332.688660,625.260681 341.319458,624.346985 349.817596,621.087341 
	C348.251831,619.558472 346.647308,618.310974 344.905670,618.074951 
	C338.530792,617.210938 332.099365,616.050598 325.709229,616.160767 
	C312.147247,616.394653 298.594421,617.298645 285.048767,618.110413 
	C283.726349,618.189697 282.480103,619.539856 281.198486,620.299988 
	C282.259155,621.188110 283.243805,622.723877 284.392883,622.858765 
	C291.594330,623.704163 298.832489,624.237305 306.981445,624.929260 
z"/><path fill="#58BB50" opacity="1.000000" stroke="none" 
	d="
M306.058472,624.873779 
	C298.832489,624.237305 291.594330,623.704163 284.392883,622.858765 
	C283.243805,622.723877 282.259155,621.188110 281.198486,620.299988 
	C282.480103,619.539856 283.726349,618.189697 285.048767,618.110413 
	C298.594421,617.298645 312.147247,616.394653 325.709229,616.160767 
	C332.099365,616.050598 338.530792,617.210938 344.905670,618.074951 
	C346.647308,618.310974 348.251831,619.558472 349.817596,621.087341 
	C341.319458,624.346985 332.688660,625.260681 323.522278,624.537964 
	C325.354095,623.743530 327.552673,623.442078 329.709991,622.957214 
	C331.832642,622.480164 333.913483,621.816895 336.012695,621.235291 
	C335.877045,620.642639 335.741394,620.049988 335.605743,619.457336 
	C322.568970,617.438965 309.535614,617.134949 296.323364,620.311401 
	C297.957031,621.747253 299.777771,622.325928 301.563873,622.996887 
	C303.082794,623.567383 304.561798,624.244080 306.058472,624.873779 
z"/><path fill="#76D14E" opacity="1.000000" stroke="none" 
	d="
M306.519958,624.901489 
	C304.561798,624.244080 303.082794,623.567383 301.563873,622.996887 
	C299.777771,622.325928 297.957031,621.747253 296.323364,620.311401 
	C309.535614,617.134949 322.568970,617.438965 335.605743,619.457336 
	C335.741394,620.049988 335.877045,620.642639 336.012695,621.235291 
	C333.913483,621.816895 331.832642,622.480164 329.709991,622.957214 
	C327.552673,623.442078 325.354095,623.743530 323.055756,624.495483 
	C317.619110,624.886902 312.300262,624.908081 306.519958,624.901489 
z"/>
</svg>
